<?xml version="1.0" standalone="no"?>
<!DOCTYPE svg PUBLIC "-//W3C//DTD SVG 20010904//EN"
 "http://www.w3.org/TR/2001/REC-SVG-20010904/DTD/svg10.dtd">
<svg version="1.0" xmlns="http://www.w3.org/2000/svg"
 width="720.000000pt" height="720.000000pt" viewBox="0 0 720.000000 720.000000"
 preserveAspectRatio="xMidYMid meet">
<metadata>
Created by potrace 1.14, written by Peter Selinger 2001-2017
</metadata>
<g transform="translate(0.000000,720.000000) scale(0.100000,-0.100000)"
fill="#000000" stroke="none">
<path d="M5698 7026 c-36 -15 -88 -65 -99 -93 -12 -32 -26 -171 -32 -315 -1
-32 -4 -58 -7 -58 -3 0 -5 -19 -6 -43 0 -23 -3 -80 -7 -127 -4 -47 -9 -114
-12 -150 -3 -36 -7 -92 -10 -125 -5 -61 -13 -158 -20 -250 -2 -27 -6 -84 -10
-125 -3 -41 -8 -99 -10 -127 -3 -36 0 -53 8 -54 28 -2 493 -1 502 1 6 1 15 1
20 0 14 -3 168 -3 180 0 6 1 15 1 20 0 6 -1 17 -3 25 -4 13 -1 15 -108 17
-891 2 -743 0 -887 -11 -872 -7 9 -17 17 -21 17 -4 0 -28 15 -54 33 -25 19
-68 44 -96 57 -46 21 -156 62 -163 60 -1 -1 -17 2 -35 5 -38 7 -116 14 -174
14 -24 1 -43 5 -43 11 0 5 -19 49 -41 97 -23 49 -43 94 -45 101 -1 7 -7 19
-13 26 -6 7 -23 35 -37 62 -119 225 -362 523 -568 698 -27 22 -59 51 -72 64
-13 12 -28 22 -33 22 -6 0 -14 6 -18 13 -13 20 -274 197 -292 197 -5 0 -14 7
-21 15 -7 9 -15 13 -18 11 -3 -3 -17 3 -31 12 -73 50 -412 191 -491 206 -8 1
-22 5 -30 8 -12 5 -96 26 -130 33 -3 1 -18 4 -35 8 -16 4 -41 8 -55 11 -14 2
-43 8 -65 12 -39 8 -49 9 -91 12 -33 3 -37 30 -9 60 46 50 83 142 88 224 1 14
12 37 23 50 25 27 43 60 51 91 20 87 20 98 2 134 -11 21 -19 54 -19 74 0 44
-14 60 -72 84 -31 13 -53 33 -78 69 -20 28 -49 58 -65 66 -31 15 -153 21 -210
10 -35 -7 -134 8 -153 23 -18 14 -28 1 -13 -17 22 -27 3 -35 -36 -16 -44 21
-52 19 -46 -13 4 -21 -2 -26 -54 -45 -32 -12 -80 -36 -108 -54 -47 -31 -50
-36 -55 -84 -3 -33 -16 -66 -34 -94 -37 -56 -38 -77 -8 -119 22 -30 24 -38 15
-77 -11 -49 -6 -57 57 -89 40 -21 51 -32 66 -65 31 -73 62 -128 88 -158 16
-18 27 -34 25 -36 -2 -2 -35 -7 -74 -10 -64 -6 -107 -12 -160 -23 -11 -2 -36
-6 -55 -9 -19 -3 -62 -12 -95 -21 -33 -8 -64 -16 -70 -18 -83 -19 -256 -75
-270 -87 -5 -4 -15 -8 -22 -8 -19 0 -309 -134 -323 -150 -3 -3 -21 -14 -40
-24 -52 -28 -202 -127 -218 -143 -7 -7 -23 -18 -34 -24 -20 -11 -57 -40 -90
-71 -10 -10 -20 -18 -23 -18 -15 0 -225 -207 -306 -300 -67 -78 -150 -187
-175 -229 -10 -17 -22 -31 -26 -31 -4 0 -8 -5 -8 -11 0 -6 -12 -29 -27 -52
-45 -68 -52 -81 -65 -107 -7 -14 -15 -27 -18 -30 -11 -11 -110 -220 -110 -233
0 -24 -25 -37 -81 -43 -89 -9 -135 -19 -207 -46 -185 -69 -334 -196 -431 -369
-17 -31 -28 -59 -24 -62 3 -4 2 -7 -4 -7 -6 0 -13 -9 -16 -20 -8 -31 -9 -33
-19 -60 -5 -14 -12 -34 -14 -45 -2 -11 -7 -31 -10 -45 -4 -14 -8 -79 -9 -145
-2 -98 2 -135 21 -206 27 -100 77 -211 124 -272 14 -18 23 -29 76 -88 59 -67
179 -151 261 -184 24 -10 44 -20 44 -24 1 -3 3 -269 4 -591 2 -322 5 -596 9
-609 22 -91 103 -186 196 -230 l55 -26 850 -3 c468 -1 855 -4 861 -6 7 -3 12
-22 12 -43 0 -21 3 -110 7 -198 11 -208 11 -201 -13 -264 -41 -103 -34 -200
17 -246 48 -43 193 -24 268 35 34 27 93 102 87 112 -3 4 -1 8 3 8 12 0 40 81
51 146 5 29 7 96 5 150 -6 159 -5 179 13 243 l17 61 470 -2 470 -3 18 -52 c15
-44 17 -80 15 -215 -4 -177 5 -232 50 -325 55 -114 143 -174 262 -179 44 -2
72 1 72 7 0 6 4 8 9 5 20 -13 68 70 66 114 -2 42 -19 120 -35 165 -11 30 -17
69 -15 100 2 28 6 124 10 215 4 91 8 166 9 167 1 2 636 4 1412 5 l1409 3 0 35
c1 89 -70 210 -160 268 -89 59 -120 64 -380 66 l-230 1 0 726 c0 701 1 728 19
748 11 12 16 21 11 21 -4 0 -2 6 4 14 11 13 47 112 56 151 2 11 7 31 10 45 13
51 12 235 -2 295 -8 33 -15 66 -17 75 -2 8 -8 28 -14 43 -7 16 -12 31 -12 33
0 3 -13 32 -30 65 l-30 61 0 974 c0 537 2 979 5 984 3 5 29 8 58 6 29 -1 60 1
69 6 9 4 19 4 22 -1 3 -4 17 -6 30 -4 l24 5 2 -175 c1 -166 -1 -177 -19 -187
-25 -13 -37 -70 -22 -99 7 -11 24 -27 39 -35 23 -12 32 -12 58 -1 37 15 45 26
51 69 3 24 -2 37 -21 56 -26 23 -26 24 -26 197 l0 174 45 -4 c24 -2 50 0 57 4
6 4 17 5 22 1 15 -9 78 -9 98 0 9 5 19 5 21 1 4 -6 219 -9 259 -4 7 1 7 8 -17
306 -2 22 -6 76 -10 120 -4 44 -8 98 -10 120 -2 22 -6 78 -9 125 -3 47 -8 105
-11 130 -2 25 -7 81 -10 125 -3 44 -7 96 -10 115 -2 19 -7 76 -10 125 -13 199
-26 240 -94 286 l-35 24 -625 2 c-476 1 -633 -1 -653 -11z m558 -5702 c-3 -7
-56 -10 -152 -10 l-149 1 -1 538 c0 377 3 537 10 537 6 1 29 9 51 20 22 11 44
19 49 20 13 0 126 70 161 98 l30 25 3 -609 c1 -335 0 -614 -2 -620z"/>
</g>
</svg>
